<svg width="180" height="180" viewBox="0 0 180 180" fill="none" xmlns="http://www.w3.org/2000/svg">
<path fill-rule="evenodd" clip-rule="evenodd" d="M23.4899 96L26.8499 87.1875L19.0049 66.6075C17.8445 63.5493 18.9677 60.0957 21.7049 58.305L40.1399 46.2675L45.8924 25.0125C46.7487 21.8543 49.6893 19.7191 52.9574 19.8825L74.9474 21L92.0924 7.16252C94.6421 5.10663 98.2802 5.10663 100.83 7.16252L117.975 21L139.965 19.905C143.233 19.7416 146.174 21.8768 147.03 25.035L152.782 46.29L171.217 58.3275C173.957 60.1163 175.081 63.5719 173.917 66.63L166.08 87.21L173.917 107.783C175.082 110.843 173.958 114.301 171.217 116.093L152.782 128.093L147 149.355C146.149 152.518 143.206 154.658 139.935 154.493L117.945 153.398L100.8 167.205" fill="url(#paint0_linear_653_1756)"/>
<path d="M23.4899 96L26.8499 87.1875L19.0049 66.6075C17.8445 63.5493 18.9677 60.0957 21.7049 58.305L40.1399 46.2675L45.8924 25.0125C46.7487 21.8543 49.6893 19.7191 52.9574 19.8825L74.9474 21L92.0924 7.16252C94.6421 5.10663 98.2802 5.10663 100.83 7.16252L117.975 21L139.965 19.905C143.233 19.7416 146.174 21.8768 147.03 25.035L152.782 46.29L171.217 58.3275C173.957 60.1163 175.081 63.5719 173.917 66.63L166.08 87.21L173.917 107.783C175.082 110.843 173.958 114.301 171.217 116.093L152.782 128.093L147 149.355C146.149 152.518 143.206 154.658 139.935 154.493L117.945 153.398L100.8 167.205" stroke="#17D386" stroke-width="3" stroke-linecap="round" stroke-linejoin="round"/>
<path d="M5.625 148.268L18.045 167.835" stroke="#17D386" stroke-width="3" stroke-linecap="round" stroke-linejoin="round"/>
<path d="M74.3101 61.1025L121.515 135.473" stroke="#17D386" stroke-width="3" stroke-linecap="round" stroke-linejoin="round"/>
<path fill-rule="evenodd" clip-rule="evenodd" d="M119.032 131.558L15.5624 163.928L8.10742 152.183L76.7924 65.0175L119.032 131.558Z" fill="#17D386" fill-opacity="0.2" stroke="#17D386" stroke-width="3" stroke-linecap="round" stroke-linejoin="round"/>
<path fill-rule="evenodd" clip-rule="evenodd" d="M37.9199 156.93L44.4899 167.025C46.6855 170.625 50.2685 173.159 54.3937 174.031C58.5189 174.902 62.8209 174.034 66.2849 171.63C73.559 166.395 75.4896 156.397 70.6874 148.83L69.4649 147.06" fill="#17D386" fill-opacity="0.2"/>
<path d="M37.9199 156.93L44.4899 167.025C46.6855 170.625 50.2685 173.159 54.3937 174.031C58.5189 174.902 62.8209 174.034 66.2849 171.63C73.559 166.395 75.4896 156.397 70.6874 148.83L69.4649 147.06" stroke="#17D386" stroke-width="3" stroke-linecap="round" stroke-linejoin="round"/>
<defs>
<linearGradient id="paint0_linear_653_1756" x1="181" y1="40.5" x2="71" y2="111.5" gradientUnits="userSpaceOnUse">
<stop stop-color="#17D386"/>
<stop offset="1" stop-color="#171A39" stop-opacity="0.2"/>
</linearGradient>
</defs>
</svg>
