<svg width="56" height="56" viewBox="0 0 56 56" fill="none" xmlns="http://www.w3.org/2000/svg">
<rect width="56" height="56" rx="28" fill="#17D386" fill-opacity="0.1"/>
<path d="M40.4351 31.5098L32.6951 32.9888" stroke="#17D386" stroke-width="2" stroke-linecap="round" stroke-linejoin="round"/>
<path d="M31.6239 22.7169L26.4219 24.4359C25.5886 24.7103 24.682 24.316 24.3144 23.5194C23.9165 22.6656 24.2676 21.6501 25.1079 21.2244L30.1464 18.6909C31.0144 18.2532 32.025 18.1945 32.9379 18.5289L40.3974 21.2574" stroke="#17D386" stroke-width="2" stroke-linecap="round" stroke-linejoin="round"/>
<path d="M15.5276 31.5221H19.1951L24.4631 37.4261C25.0125 38.0628 25.8998 38.2908 26.6881 37.9979C27.4764 37.7051 27.9996 36.953 28.0001 36.1121V35.1896L28.2626 35.2946C29.0277 35.6006 29.8949 35.5073 30.5774 35.0454C31.2598 34.5835 31.6688 33.8132 31.6691 32.9891H32.4026C33.2361 32.9885 33.9979 32.5174 34.3706 31.7718C34.7434 31.0263 34.6632 30.1342 34.1636 29.4671L29.4551 23.4341" stroke="#17D386" stroke-width="2" stroke-linecap="round" stroke-linejoin="round"/>
<path d="M25.8745 20.8373L25.3375 20.3948C24.7964 19.9963 24.142 19.7813 23.47 19.7813C23.0696 19.7811 22.6729 19.858 22.3015 20.0078L15.625 22.6778" stroke="#17D386" stroke-width="2" stroke-linecap="round" stroke-linejoin="round"/>
<path d="M11.125 20.1248H14.125C14.918 20.0918 15.5885 20.706 15.625 21.4988V31.1243C15.5885 31.9174 14.9183 32.532 14.125 32.4998H11.125" stroke="#17D386" stroke-width="2" stroke-linecap="round" stroke-linejoin="round"/>
<path d="M44.875 32.4998H41.875C41.0817 32.532 40.4115 31.9174 40.375 31.1243V21.4988C40.4115 20.706 41.082 20.0918 41.875 20.1248H44.875" stroke="#17D386" stroke-width="2" stroke-linecap="round" stroke-linejoin="round"/>
<path d="M28 35.1897L26.533 33.7227" stroke="#17D386" stroke-width="2" stroke-linecap="round" stroke-linejoin="round"/>
<path d="M31.669 32.9891L29.467 30.7871" stroke="#17D386" stroke-width="2" stroke-linecap="round" stroke-linejoin="round"/>
</svg>
