<svg width="56" height="56" viewBox="0 0 56 56" fill="none" xmlns="http://www.w3.org/2000/svg">
<rect width="56" height="56" rx="28" fill="#17D386" fill-opacity="0.1"/>
<path fill-rule="evenodd" clip-rule="evenodd" d="M16.7485 40.375C18.9232 40.375 20.686 38.6121 20.686 36.4375C20.686 34.2629 18.9232 32.5 16.7485 32.5C14.5739 32.5 12.811 34.2629 12.811 36.4375C12.811 38.6121 14.5739 40.375 16.7485 40.375Z" stroke="#17D386" stroke-width="2" stroke-linecap="round" stroke-linejoin="round"/>
<path d="M22.3735 44.875C21.2656 42.7976 19.1029 41.5 16.7485 41.5C14.3942 41.5 12.2315 42.7976 11.1235 44.875" stroke="#17D386" stroke-width="2" stroke-linecap="round" stroke-linejoin="round"/>
<path fill-rule="evenodd" clip-rule="evenodd" d="M39.2485 40.375C41.4232 40.375 43.186 38.6121 43.186 36.4375C43.186 34.2629 41.4232 32.5 39.2485 32.5C37.0739 32.5 35.311 34.2629 35.311 36.4375C35.311 38.6121 37.0739 40.375 39.2485 40.375Z" stroke="#17D386" stroke-width="2" stroke-linecap="round" stroke-linejoin="round"/>
<path d="M44.8735 44.875C43.7656 42.7976 41.6029 41.5 39.2485 41.5C36.8942 41.5 34.7315 42.7976 33.6235 44.875" stroke="#17D386" stroke-width="2" stroke-linecap="round" stroke-linejoin="round"/>
<path fill-rule="evenodd" clip-rule="evenodd" d="M27.9985 19C30.1732 19 31.936 17.2371 31.936 15.0625C31.936 12.8879 30.1732 11.125 27.9985 11.125C25.8239 11.125 24.061 12.8879 24.061 15.0625C24.061 17.2371 25.8239 19 27.9985 19Z" stroke="#17D386" stroke-width="2" stroke-linecap="round" stroke-linejoin="round"/>
<path d="M32.8721 22.375C31.6554 20.9465 29.8735 20.1235 27.9971 20.1235C26.1207 20.1235 24.3387 20.9465 23.1221 22.375" stroke="#17D386" stroke-width="2" stroke-linecap="round" stroke-linejoin="round"/>
<path d="M23.575 39.5607C26.4478 40.656 29.6248 40.6463 32.491 39.5337" stroke="#17D386" stroke-width="2" stroke-linecap="round" stroke-linejoin="round"/>
<path d="M19.5221 19C17.0329 21.3313 15.621 24.5896 15.6221 28C15.6221 28.3795 15.6446 28.75 15.6791 29.125" stroke="#17D386" stroke-width="2" stroke-linecap="round" stroke-linejoin="round"/>
<path d="M40.3166 29.125C40.3496 28.753 40.3736 28.375 40.3736 28C40.3753 24.5895 38.9632 21.3309 36.4736 19" stroke="#17D386" stroke-width="2" stroke-linecap="round" stroke-linejoin="round"/>
</svg>
