<svg width="82" height="60" viewBox="0 0 82 60" fill="none" xmlns="http://www.w3.org/2000/svg">
<path d="M8.43512 57.8516L6.82118 55.9162C6.37456 56.0279 5.91778 56.0854 5.45085 56.0854C4.4561 56.0854 3.54255 55.8519 2.7102 55.385C1.87786 54.9181 1.21807 54.2718 0.730842 53.4429C0.243615 52.6139 0 51.6801 0 50.6312C0 49.5958 0.243615 48.6653 0.730842 47.8364C1.21807 47.0074 1.87786 46.3612 2.7102 45.8942C3.54255 45.4273 4.4561 45.1938 5.45085 45.1938C6.45576 45.1938 7.3727 45.4273 8.19828 45.8942C9.02724 46.3612 9.68026 47.0074 10.1641 47.8364C10.6479 48.6653 10.8882 49.5958 10.8882 50.6312C10.8882 51.5752 10.6885 52.4346 10.2859 53.2128C9.88327 53.9876 9.33852 54.6203 8.64829 55.1076L11.0844 57.8482H8.43512V57.8516ZM2.60193 52.4684C2.87599 52.9929 3.25834 53.3989 3.75233 53.6865C4.24632 53.9741 4.81137 54.1196 5.45085 54.1196C6.09034 54.1196 6.65539 53.9741 7.14261 53.6865C7.62984 53.3955 8.01218 52.9895 8.28625 52.4684C8.56031 51.9474 8.69904 51.3349 8.69904 50.6345C8.69904 49.9342 8.56031 49.3217 8.28625 48.8007C8.01218 48.2762 7.62984 47.8736 7.14261 47.5894C6.65539 47.3052 6.09034 47.1631 5.45085 47.1631C4.81137 47.1631 4.24632 47.3052 3.75233 47.5894C3.25834 47.8736 2.87599 48.2762 2.60193 48.8007C2.32786 49.3251 2.18914 49.9342 2.18914 50.6345C2.19252 51.3349 2.32786 51.9474 2.60193 52.4684Z" fill="white"/>
<path d="M12.4649 49.4605C12.8066 48.8007 13.2667 48.2932 13.8521 47.9379C14.4374 47.5826 15.0871 47.4033 15.8078 47.4033C16.4371 47.4033 16.9886 47.5319 17.4589 47.7823C17.9326 48.036 18.3082 48.3575 18.5924 48.7432V47.5387H20.7409V55.9772H18.5924V54.7422C18.3184 55.1381 17.9394 55.4663 17.4589 55.7234C16.9751 55.9839 16.4202 56.1125 15.7909 56.1125C15.0803 56.1125 14.4341 55.9298 13.8487 55.5644C13.2634 55.199 12.8032 54.6847 12.4615 54.0181C12.1197 53.3515 11.9506 52.5903 11.9506 51.7241C11.9539 50.8782 12.1231 50.1203 12.4649 49.4605ZM18.2913 50.4282C18.0883 50.0594 17.8142 49.7718 17.4691 49.5755C17.124 49.3759 16.7518 49.2778 16.3559 49.2778C15.96 49.2778 15.5946 49.3759 15.2596 49.5688C14.9247 49.7616 14.654 50.0425 14.4442 50.4147C14.2344 50.7868 14.1329 51.2233 14.1329 51.7308C14.1329 52.2384 14.2378 52.6816 14.4442 53.064C14.6506 53.4429 14.9247 53.7373 15.2664 53.9403C15.6048 54.1433 15.9702 54.2448 16.3559 54.2448C16.7518 54.2448 17.124 54.1467 17.4691 53.9471C17.8142 53.7508 18.0883 53.4666 18.2913 53.0944C18.4943 52.7222 18.5958 52.279 18.5958 51.7613C18.5958 51.2436 18.4943 50.797 18.2913 50.4282Z" fill="white"/>
<path d="M26.6994 49.2911H25.2208V55.9769H23.0587V49.2911H22.0978V47.5384H23.0587V47.1121C23.0587 46.0767 23.3531 45.3154 23.9418 44.8282C24.5305 44.341 25.4204 44.1109 26.608 44.1413V45.938C26.0903 45.9278 25.7283 46.0124 25.5253 46.1951C25.3223 46.3778 25.2208 46.7094 25.2208 47.1865V47.5384H26.6994V49.2911Z" fill="white"/>
<path d="M28.0596 49.4974C28.4115 48.841 28.8851 48.3335 29.484 47.9681C30.0829 47.6026 30.7427 47.4199 31.4634 47.4199C32.0623 47.4199 32.5935 47.535 33.0536 47.7617C33.5172 47.9917 33.8894 48.2827 34.1736 48.638V47.5417H36.3221V59.9999H34.1736V54.8231C33.8894 55.1885 33.507 55.493 33.03 55.7366C32.5529 55.9802 32.0149 56.102 31.416 56.102C30.7055 56.102 30.0525 55.916 29.457 55.5471C28.8648 55.1783 28.3945 54.6607 28.0494 54.0009C27.7043 53.3411 27.5317 52.5899 27.5317 51.7474C27.5351 50.9016 27.7111 50.1538 28.0596 49.4974ZM33.8555 50.4211C33.6424 50.0455 33.3649 49.7613 33.0266 49.5685C32.6848 49.3756 32.3228 49.2775 31.9371 49.2775C31.5615 49.2775 31.2029 49.3756 30.8645 49.5685C30.5228 49.7613 30.2487 50.0422 30.0355 50.4143C29.8224 50.7865 29.7141 51.2298 29.7141 51.7474C29.7141 52.2651 29.8224 52.7151 30.0355 53.0941C30.2487 53.473 30.5262 53.7607 30.8645 53.9535C31.2029 54.1464 31.5615 54.2445 31.9371 54.2445C32.3228 54.2445 32.6848 54.1464 33.0266 53.9535C33.3649 53.7607 33.6424 53.4764 33.8555 53.1009C34.0687 52.7253 34.177 52.2787 34.177 51.761C34.177 51.2433 34.0687 50.7967 33.8555 50.4211Z" fill="white"/>
<path d="M38.3725 49.4605C38.7142 48.8007 39.1743 48.2932 39.7597 47.9379C40.345 47.5826 40.9947 47.4033 41.7154 47.4033C42.3447 47.4033 42.8962 47.5319 43.3665 47.7823C43.8402 48.036 44.2158 48.3575 44.5 48.7432V47.5387H46.6485V55.9772H44.5V54.7422C44.2259 55.1381 43.847 55.4663 43.3665 55.7234C42.8827 55.9839 42.3278 56.1125 41.6985 56.1125C40.9879 56.1125 40.3417 55.9298 39.7563 55.5644C39.171 55.199 38.7108 54.6847 38.3691 54.0181C38.0273 53.3515 37.8582 52.5903 37.8582 51.7241C37.8615 50.8782 38.0307 50.1203 38.3725 49.4605ZM44.1989 50.4282C43.9959 50.0594 43.7218 49.7718 43.3767 49.5755C43.0316 49.3759 42.6594 49.2778 42.2635 49.2778C41.8676 49.2778 41.5022 49.3759 41.1672 49.5688C40.8323 49.7616 40.5616 50.0425 40.3518 50.4147C40.142 50.7868 40.0405 51.2233 40.0405 51.7308C40.0405 52.2384 40.1454 52.6816 40.3518 53.064C40.5582 53.4429 40.8323 53.7373 41.174 53.9403C41.5124 54.1433 41.8778 54.2448 42.2635 54.2448C42.6594 54.2448 43.0316 54.1467 43.3767 53.9471C43.7218 53.7508 43.9959 53.4666 44.1989 53.0944C44.4019 52.7222 44.5034 52.279 44.5034 51.7613C44.5034 51.2436 44.4019 50.797 44.1989 50.4282Z" fill="white"/>
<path d="M50.6852 54.2278H54.4477V55.9805H48.2626V54.2583L51.9472 49.2947H48.2761V47.542H54.4003V49.2642L50.6852 54.2278Z" fill="white"/>
<path d="M65.187 55.9805H63.0554L58.2271 48.6856V55.9805H56.0955V45.3325H58.2271L63.0554 52.6443V45.3325H65.187V55.9805Z" fill="white"/>
<path d="M75.0702 52.3534H68.9021C68.9427 52.9726 69.1491 53.4598 69.528 53.8151C69.9036 54.1704 70.3705 54.3497 70.9288 54.3497C71.7205 54.3497 72.2856 54.0113 72.6206 53.3279H74.9213C74.6777 54.1399 74.2108 54.8098 73.5206 55.3309C72.8303 55.8554 71.9811 56.1159 70.9762 56.1159C70.1641 56.1159 69.4367 55.9366 68.7904 55.5745C68.1442 55.2159 67.6434 54.705 67.2814 54.0452C66.9193 53.3854 66.74 52.6241 66.74 51.7613C66.74 50.8883 66.9159 50.1203 67.2746 49.4605C67.6299 48.8007 68.1272 48.2932 68.7667 47.9379C69.4062 47.5826 70.1438 47.4033 70.9762 47.4033C71.7781 47.4033 72.4954 47.5759 73.1315 47.921C73.7676 48.2661 74.2582 48.7533 74.6101 49.3827C74.9619 50.012 75.1345 50.7395 75.1345 51.5617C75.1311 51.8459 75.1108 52.1098 75.0702 52.3534ZM72.9217 51.0609C72.9115 50.4722 72.7153 50.0086 72.3363 49.6669C71.9574 49.3285 71.4803 49.156 70.9119 49.156C70.3739 49.156 69.9205 49.3252 69.5551 49.6669C69.1897 50.0086 68.9697 50.4722 68.8987 51.0609H72.9217Z" fill="white"/>
<path d="M79.1676 49.2909V53.3715C79.1676 53.6557 79.2353 53.8621 79.374 53.9873C79.5094 54.1158 79.7428 54.1767 80.0677 54.1767H81.059V55.9734H79.7192C77.9225 55.9734 77.0225 55.1005 77.0225 53.3546V49.2876H76.0176V47.5349H77.0225V45.4473H79.171V47.5349H81.059V49.2876H79.1676V49.2909Z" fill="white"/>
<path d="M50.692 34.008C47.772 35.9366 44.2667 37.0565 40.5042 37.0565C34.4444 37.0565 29.0612 34.1467 25.681 29.6466C24.0603 27.4913 22.9032 24.974 22.3449 22.2333C22.1013 21.0389 21.9761 19.7972 21.9761 18.5284C21.9761 17.2595 22.1013 16.0212 22.3449 14.8234C22.9032 12.0861 24.0603 9.56541 25.681 7.41011C27.0378 5.60669 28.7161 4.05365 30.6311 2.84912C29.7243 3.52921 29.139 4.60855 29.139 5.82662C29.139 7.88041 30.8003 9.54173 32.8507 9.54173C33.4902 9.54173 34.0958 9.37932 34.6237 9.0951C32.5056 10.4181 30.868 12.4346 30.0221 14.8234C29.6093 15.984 29.386 17.2291 29.386 18.5284C29.386 19.8276 29.6093 21.0762 30.0221 22.2333C31.5481 26.5507 35.6658 29.6466 40.5042 29.6466C42.2332 29.6466 43.8708 29.2507 45.3291 28.547C46.4356 28.0124 47.4405 27.3018 48.3033 26.4492C47.6773 27.1056 47.2916 27.9955 47.2916 28.9767C47.2916 29.2034 47.3119 29.4301 47.3525 29.6466C47.3592 29.6805 47.366 29.7177 47.3762 29.7515C47.5623 30.6245 48.063 31.3824 48.7533 31.9C48.7566 31.9034 48.7566 31.9034 48.7634 31.9068C49.3589 32.6241 50.0627 33.3685 50.692 34.008Z" fill="#0000FE"/>
<path d="M58.9511 33.3513C58.9511 35.3983 57.3101 37.0563 55.2868 37.0563C54.1567 37.0563 53.1484 36.542 52.4751 35.7265L52.4581 35.7096C52.4581 35.7096 51.6596 34.9822 50.6919 34.0077C50.0626 33.3682 49.3588 32.6238 48.7633 31.9065C48.7566 31.9031 48.7566 31.9031 48.7532 31.8998C48.0731 31.081 47.525 30.3027 47.3761 29.7512C47.3659 29.7174 47.3592 29.6802 47.3524 29.6463C47.3118 29.4298 47.2915 29.2031 47.2915 28.9764C47.2915 27.9952 47.6772 27.1053 48.3032 26.4489C48.3472 26.4083 48.3878 26.3677 48.4284 26.3271C49.0882 25.6978 49.978 25.3154 50.9592 25.3154C51.9472 25.3154 52.8405 25.7012 53.4969 26.3305L53.6356 26.4658L55.9364 28.7869L56.7924 29.6463L57.75 30.6106L57.7804 30.6377L57.953 30.8103C58.5688 31.4734 58.9511 32.3701 58.9511 33.3513Z" fill="#18E792"/>
<path d="M59.0357 18.5282C59.0357 20.5752 57.3744 22.2331 55.3274 22.2331C53.2837 22.2331 51.6224 20.5752 51.6224 18.5282C51.6224 17.2289 51.3991 15.9838 50.9897 14.8232C49.4637 10.5058 45.346 7.40992 40.5042 7.40992C38.447 7.40992 36.5184 7.97158 34.8638 8.94942C34.7826 8.99341 34.7014 9.04416 34.6236 9.09491C34.0958 9.37912 33.4901 9.54154 32.8506 9.54154C30.8002 9.54154 29.1389 7.88022 29.1389 5.82643C29.1389 4.60836 29.7243 3.52902 30.6311 2.84893C30.8408 2.71359 31.054 2.58502 31.2739 2.46321C33.9909 0.896638 37.1443 0 40.5042 0C46.5674 0 51.9506 2.90983 55.3274 7.40992C56.9481 9.56522 58.1086 12.0859 58.6635 14.8232C58.9071 16.021 59.0357 17.2593 59.0357 18.5282Z" fill="#18E792"/>
</svg>
