<svg width="56" height="56" viewBox="0 0 56 56" fill="none" xmlns="http://www.w3.org/2000/svg">
<rect width="56" height="56" rx="28" fill="#17D386" fill-opacity="0.1"/>
<path d="M33.625 24.6235L27.6535 32.5855C27.4577 32.8462 27.1585 33.0091 26.8334 33.0322C26.5082 33.0552 26.189 32.936 25.9585 32.7055L22.375 29.1235" stroke="#17D386" stroke-width="2" stroke-linecap="round" stroke-linejoin="round"/>
<path fill-rule="evenodd" clip-rule="evenodd" d="M26.095 12.0354C26.5591 11.4585 27.2596 11.123 28 11.123C28.7403 11.123 29.4409 11.4585 29.905 12.0354L32.173 14.8569C32.695 15.5074 33.5127 15.8468 34.342 15.7569L37.942 15.3654C38.6802 15.2834 39.4156 15.5414 39.9408 16.0666C40.466 16.5918 40.724 17.3272 40.642 18.0654L40.2505 21.6654C40.1606 22.4946 40.4999 23.3124 41.1505 23.8344L43.972 26.1024C44.5488 26.5665 44.8843 27.267 44.8843 28.0074C44.8843 28.7478 44.5488 29.4483 43.972 29.9124L41.1415 32.1699C40.4912 32.6927 40.1519 33.5108 40.2415 34.3404L40.633 37.9404C40.7156 38.6787 40.4578 39.4145 39.9324 39.9399C39.4071 40.4652 38.6713 40.723 37.933 40.6404L34.333 40.2489C33.5037 40.1588 32.6858 40.4981 32.164 41.1489L29.905 43.9599C29.4412 44.5373 28.7405 44.8732 28 44.8732C27.2594 44.8732 26.5588 44.5373 26.095 43.9599L23.8285 41.1399C23.3058 40.4894 22.4876 40.1501 21.658 40.2399L18.058 40.6314C17.3195 40.7146 16.5833 40.457 16.0579 39.9315C15.5324 39.406 15.2748 38.6699 15.358 37.9314L15.7495 34.3314C15.8393 33.5018 15.5 32.6836 14.8495 32.1609L12.0295 29.8944C11.4521 29.4306 11.1162 28.73 11.1162 27.9894C11.1162 27.2488 11.4521 26.5482 12.0295 26.0844L14.8495 23.8164C15.5002 23.2946 15.8396 22.4767 15.7495 21.6474L15.358 18.0474C15.2754 17.3091 15.5332 16.5733 16.0585 16.0479C16.5838 15.5226 17.3196 15.2648 18.058 15.3474L21.658 15.7389C22.4876 15.8284 23.3056 15.4892 23.8285 14.8389L26.095 12.0354Z" stroke="#17D386" stroke-width="2" stroke-linecap="round" stroke-linejoin="round"/>
</svg>
